<svg width="64" height="64" viewBox="0 0 64 64" fill="none" xmlns="http://www.w3.org/2000/svg">
<path d="M24.0914 0.740644C21.4034 0.896072 18.688 1.44464 16.7954 2.19436C13.8788 3.3555 11.0994 5.84236 8.71311 9.41722C4.2514 16.1097 1.21597 26.304 0.722254 36.2697C0.48454 40.9875 1.1154 45.376 2.29483 47.296C2.70625 47.9635 4.64454 50.5143 5.66854 51.7395C9.06968 55.7989 12.9005 57.856 21.76 60.3886C29.1565 62.5006 33.4903 63.2869 37.76 63.296C42.24 63.3052 45.5954 62.4732 48.7314 60.5715C50.9897 59.2092 52.2697 58.2035 53.2205 57.0697C56.9417 52.5989 60.6628 43.6663 62.3543 35.1086C63.0217 31.7166 63.3051 28.992 63.296 25.8743C63.2868 19.4103 61.8788 15.4332 58.3314 11.8857C52.928 6.47322 42.6057 2.2035 32.0183 1.00579C28.9371 0.658358 26.7245 0.585215 24.0914 0.740644ZM49.8834 17.5269C51.264 18.2035 51.8674 19.9406 51.2 21.3577C51.0354 21.7235 48.7771 24.0275 39.5063 33.2983L28.0228 44.7817L27.1543 45.1932C26.1303 45.6777 25.5908 45.8057 24.5485 45.8057C23.4971 45.8057 22.9577 45.6777 21.9428 45.1932L21.0743 44.7726L16.7497 40.4663C13.6228 37.3577 12.352 36.032 12.1783 35.7029C11.968 35.3097 11.9314 35.136 11.9314 34.4229C11.9314 33.7097 11.968 33.536 12.1783 33.1429C12.4708 32.5943 12.9737 32.1006 13.5314 31.808C13.8788 31.6252 14.08 31.5886 14.7657 31.5886C15.4514 31.5886 15.6617 31.6252 16 31.7989C16.2743 31.9452 17.7554 33.3623 20.4525 36.0503L24.5028 40.0915L35.7211 28.8732C41.9017 22.7109 47.0765 17.6 47.2411 17.5177C48.0365 17.1155 49.0605 17.1246 49.8834 17.5269Z" fill="#417FF5"/>
</svg>
